<svg width="21" height="20" viewBox="0 0 21 20" fill="currentColor" xmlns="http://www.w3.org/2000/svg">
<path fill-rule="evenodd" clip-rule="evenodd" d="M4.70191 0.330568C6.54484 -0.262099 8.53919 -0.0488307 10.2078 0.897951L10.4841 1.06397L10.7654 0.896974C12.3474 0.00139594 14.224 -0.238143 15.99 0.24756L16.2683 0.330568C20.1203 1.57073 21.8453 5.77685 20.5496 9.80127C19.8999 11.6733 18.8348 13.371 17.4285 14.77C15.5147 16.6286 13.4042 18.2699 11.1394 19.6626L10.8992 19.812C10.6552 19.9635 10.3468 19.9662 10.1003 19.8188L9.84253 19.6646C7.57466 18.27 5.46502 16.6282 3.54468 14.7632C2.14484 13.3706 1.0797 11.6731 0.424562 9.78467C-0.866439 5.77422 0.851127 1.57034 4.70191 0.330568ZM14.5466 4.17822C14.1433 4.04947 13.7119 4.27142 13.5828 4.67432C13.4539 5.07754 13.6763 5.50938 14.0798 5.63819C14.873 5.89137 15.4387 6.60567 15.5095 7.44776C15.5453 7.86923 15.9158 8.18228 16.3376 8.14697C16.7598 8.11152 17.0733 7.74065 17.0378 7.31885C16.9152 5.86113 15.9325 4.62062 14.5466 4.17822Z" fill="currentColor"/>
</svg>
